<svg width="668" height="450" viewBox="0 0 668 450" fill="none" xmlns="http://www.w3.org/2000/svg">
<path d="M76.3974 433.465C76.3974 433.465 32.7155 330.692 87.9605 253.023C143.205 175.355 109.511 106.504 206.51 37.958C331.187 -50.1459 451.443 36.7816 487.304 95.7182C523.165 154.655 644.968 124.569 609.57 292.269C582.109 422.358 602.6 428.065 602.6 428.065L76.3974 433.465Z" fill="#F1EEFD"/>
<path d="M102.719 405.663C102.719 405.663 25.1986 365.184 43.8772 274.164C62.5558 183.144 138.628 161.545 169.913 168.227C228.55 180.751 132.749 217.703 109.865 154.278C81.1516 74.6989 183.529 14.4483 278.432 30.0407C339.425 40.0622 368.866 69.2441 423.083 87.5806C477.107 105.852 499.766 81.3808 478.242 67.1984C457.81 53.7345 383.627 75.7004 409.098 105.806C443.975 147.029 528.025 83.1608 593.167 154.278C658.309 225.395 601.757 314.804 551.678 322.26C501.598 329.715 523.556 257.868 601.757 314.805C679.959 371.743 581.179 433.468 581.179 433.468" stroke="#C3C8FF" stroke-miterlimit="10"/>
<path d="M635.018 439.159H42.4415C39.2952 439.159 36.7461 436.61 36.7461 433.466C36.7461 430.322 39.2965 427.774 42.4415 427.774H640.713V433.466C640.713 436.61 638.163 439.159 635.018 439.159Z" fill="#6876EB"/>
<path d="M255.392 439.159H42.4415C39.2952 439.159 36.7461 436.61 36.7461 433.466V427.774H261.089V433.466C261.089 436.61 258.538 439.159 255.392 439.159Z" fill="#1C145E"/>
<path d="M343.92 210.752C318.544 259.491 290.031 279.347 290.031 279.347L314.655 318.64L357.654 273.979L343.92 210.752Z" fill="#1C145E"/>
<path d="M406.839 199.12L343.92 210.753C339.935 329.733 338.441 427.758 338.441 427.758H451.379C451.379 427.758 454.656 245.564 436.488 205.812L406.839 199.12Z" fill="#1C145E"/>
<path d="M399.531 259.752L430.184 257.16" stroke="#6876EB" stroke-width="4" stroke-miterlimit="10"/>
<path d="M385.461 234.181C385.461 234.181 404.917 366.88 387.989 420.573" stroke="#6876EB" stroke-miterlimit="10"/>
<path d="M365.094 300.651C365.094 300.651 383.886 308.211 408.249 309.011C432.613 309.811 417.454 322.768 381.337 320.311" stroke="#6876EB" stroke-miterlimit="10"/>
<path d="M369.938 194.281L385.466 235.515L406.842 199.119L392.754 176.107L369.938 194.281Z" fill="#E9A394"/>
<path d="M385.461 235.516L414.448 227.518L406.837 199.12L385.461 235.516Z" fill="#6876EB"/>
<path d="M373.384 203.444L357.652 221.006L385.461 235.516L373.384 203.444Z" fill="#6876EB"/>
<path d="M314.654 318.64C314.654 318.64 323.842 299.491 304.115 274.826C293.175 261.149 288.135 237.547 288.135 237.547L271.699 240.045L286.749 318.642H314.654V318.64Z" fill="#E9A394"/>
<path d="M268.34 212.904L261.61 219.017L270.607 226.954L242.436 226.475L241.832 236.136L271.698 240.045L288.135 237.547L268.34 212.904Z" fill="#E9A394"/>
<path d="M273.262 227.95L246.233 216.807L244.488 221.606L267.048 231.081L273.262 227.95Z" fill="#E9A394"/>
<path d="M436.484 205.812C436.484 205.812 472.793 226.474 484.258 303.871L442.134 314.031L436.484 205.812Z" fill="#1C145E"/>
<path d="M357.631 143.892L343.918 178.962L354.404 182.187L357.631 201.94L391.108 194.281L395.947 140.667L357.631 143.892Z" fill="#E9A394"/>
<path d="M379.972 152.226H354.371L357.163 144.665L379.972 143.255V152.226Z" fill="#E37A82"/>
<path d="M393.346 168.225C393.346 168.225 377.014 164.848 377.014 147.961C377.014 147.961 352.78 151.258 344.414 138.11C334.505 122.536 349.649 104.639 362.155 108.275C362.155 108.275 354.274 116.083 366.243 117C374.779 117.654 390.377 106.304 395.945 117.282C395.945 117.282 438.908 127.09 406.835 167.1L393.346 168.225Z" fill="#16005C"/>
<path d="M377.017 146.625C377.017 146.625 344.623 152.881 337.848 129.663C333.887 116.089 347.499 108.359 347.499 108.359" stroke="#16005C" stroke-width="2" stroke-miterlimit="10"/>
<path d="M363.307 177.845C370.06 177.845 375.535 172.373 375.535 165.623C375.535 158.873 370.06 153.401 363.307 153.401C356.553 153.401 351.078 158.873 351.078 165.623C351.078 172.373 356.553 177.845 363.307 177.845Z" stroke="#16005C" stroke-width="0.5" stroke-miterlimit="10"/>
<path d="M374.875 161.667L392.291 162.621" stroke="#16005C" stroke-width="0.5" stroke-miterlimit="10"/>
<path d="M414.445 171.303C414.445 178.873 404.298 185.009 396.724 185.009C389.15 185.009 387.02 178.872 387.02 171.303C387.02 163.735 393.16 157.598 400.732 157.598C408.305 157.598 414.445 163.735 414.445 171.303Z" fill="#E9A394"/>
<path d="M479.237 305.083V368.286H447.706L445.082 313.321L479.237 305.083Z" fill="#E9A394"/>
<path d="M341.464 290.795L342.788 246.756L322.363 310.635L341.464 290.795Z" fill="#1C145C"/>
<path d="M371.559 198.476L391.111 194.282L375.082 207.946L371.559 198.476Z" fill="#E37A82"/>
<path d="M359.993 171.303C361.286 171.303 362.334 169.119 362.334 166.424C362.334 163.729 361.286 161.545 359.993 161.545C358.7 161.545 357.652 163.729 357.652 166.424C357.652 169.119 358.7 171.303 359.993 171.303Z" fill="#16005C"/>
<path d="M366.352 154.557C366.352 148.019 361.145 152.42 361.145 152.42L366.352 154.557Z" fill="#16005C"/>
<path d="M361.145 183.502L368.593 181.52C368.593 181.52 371.784 209.132 361.145 183.502Z" fill="white"/>
<path d="M200.637 307.263C200.637 307.263 250.888 299.491 251.875 387.075C252.035 401.288 261.089 427.772 261.089 427.772H215.549L200.637 307.263Z" fill="#5321D7"/>
<path d="M148.09 299.492L117.719 306.657L126.985 427.772H245.157C245.157 427.772 241.193 331.946 196.63 303.199L148.09 299.492Z" fill="#6A3FDC"/>
<path d="M117.721 306.657C86.417 313.793 93.7449 337.807 99.789 387.12C84.1645 399.803 99.1544 405.511 99.1544 405.511C81.9948 423.691 103.402 427.772 103.402 427.772H160.548C160.548 427.772 149.046 299.515 117.721 306.657Z" fill="#6A3FDC"/>
<path d="M157.148 399.799L143.434 336.879" stroke="#5321D7" stroke-miterlimit="10"/>
<path d="M103.398 427.772C103.398 427.772 113.047 405.631 143.541 394.5C168.825 385.272 205.81 409.229 229.485 386.464L233.87 412.094L160.545 427.772H103.398Z" fill="#E9A394"/>
<path d="M203.928 237.114L226.536 271.509L212.029 276.685L209.521 304.637L165.922 289.497L170.03 232.641L203.928 237.114Z" fill="#E9A394"/>
<path d="M170.38 273.243L148.094 299.491L176.673 334.498L189.563 293.611L170.38 273.243Z" fill="#E37A82"/>
<path d="M177.835 256.991L209.726 245.933L203.929 237.114L172.426 240.391L177.835 256.991Z" fill="#E37A82"/>
<path d="M175.079 269.04C175.079 269.04 184.734 288.36 178.017 251.117C178.017 251.117 187.179 252.145 194.355 240.06C194.355 240.06 192.125 259.754 213.174 240.06C234.222 220.364 207.464 204.954 174.766 210.752C146.426 215.778 118.065 231.782 159.516 286.04L175.079 269.04Z" fill="#16005C"/>
<path d="M169.916 276.722C167.741 279.637 164.004 282.282 160.119 282.848C152.349 283.979 144.761 277.849 143.629 270.083C142.498 262.317 146.423 258.284 154.192 257.153C158.559 256.517 163.616 257.811 167.409 260.446C168.555 261.873 169.916 276.722 169.916 276.722Z" fill="#E9A394"/>
<path d="M200.673 265.987C201.837 265.671 202.196 263.264 201.475 260.61C200.755 257.956 199.227 256.06 198.064 256.376C196.9 256.691 196.541 259.099 197.262 261.753C197.982 264.407 199.51 266.303 200.673 265.987Z" fill="#16005C"/>
<path d="M191.837 254.429C191.837 254.429 190.704 248.042 196.635 251.117L191.837 254.429Z" fill="#16005C"/>
<path d="M144.523 300.565L149.698 294.626L147.799 290.223L159.512 286.041L193.114 302.93L194.351 315.825L188.665 314.029L179.382 348.611L144.523 300.565Z" fill="#6A3FDC"/>
<path d="M174.867 309.009L194.353 315.825L193.116 302.93" stroke="#5321D7" stroke-miterlimit="10"/>
<path d="M178.016 251.118C178.016 251.118 181.936 273.919 187.669 278.608C189.552 280.147 193.115 276.231 209.518 275.902C219.547 275.702 219.539 310.693 206.23 309.69C192.921 308.687 172.695 300.393 169.664 274.889C167.007 252.514 178.016 251.118 178.016 251.118Z" fill="#16005C"/>
<path d="M194.352 282.848C194.352 282.848 197.734 289.144 204.401 284.879" stroke="#C4C6C5" stroke-miterlimit="10"/>
<path d="M270.408 413.373H158.227V421.68C158.227 425.045 160.956 427.772 164.321 427.772H270.408C273.775 427.772 276.503 425.044 276.503 421.68V419.465C276.504 416.101 273.775 413.373 270.408 413.373Z" fill="#1C145E"/>
<path d="M361.517 330.096H231.022C227.143 330.096 223.869 332.978 223.377 336.822L212.864 419.095C212.276 423.699 215.865 427.773 220.509 427.773H351.004C354.882 427.773 358.157 424.891 358.648 421.047L369.161 338.774C369.749 334.17 366.161 330.096 361.517 330.096Z" fill="#1C145E"/>
<path d="M367.833 330.096H237.338C233.46 330.096 230.185 332.978 229.693 336.822L219.18 419.095C218.593 423.699 222.181 427.773 226.825 427.773H357.32C361.198 427.773 364.473 424.891 364.965 421.047L375.478 338.774C376.065 334.17 372.477 330.096 367.833 330.096Z" fill="#6876EB"/>
<path d="M305.724 387.774C311.158 382.62 311.8 374.479 307.158 369.589C302.516 364.7 294.348 364.914 288.914 370.067C283.48 375.221 282.837 383.363 287.479 388.252C292.121 393.142 300.289 392.928 305.724 387.774Z" fill="white"/>
<path d="M364.987 427.076H202.555" stroke="#1C145E" stroke-miterlimit="10"/>
<path d="M436.779 316.974L490.701 317.995L478.477 252.067L449.805 255.312C449.805 255.312 436.89 274.364 447.089 289.178C458.596 305.892 435.594 306.516 436.779 316.974Z" fill="#16005C"/>
<path d="M449.803 255.312C449.803 255.312 436.888 274.364 447.087 289.178C458.596 305.893 435.594 306.515 436.779 316.974" stroke="#7079F1" stroke-width="2" stroke-miterlimit="10"/>
<path d="M460.557 309.01C460.557 309.01 436.022 333.073 423.086 423.752H450.396L460.557 309.01Z" fill="#7079F1"/>
<path d="M525.401 302.307L514.723 423.752H435.402L445.277 377.369C445.277 377.369 415.078 361.622 460.559 309.01L471.863 303.199L520.974 299.492L525.401 302.307Z" fill="#C3C8FF"/>
<path d="M460.556 363.363C460.556 363.363 455.801 371.503 460.373 378.038L453.641 423.752" stroke="#7079F1" stroke-miterlimit="10"/>
<path d="M449.473 377.579L495.416 378.934" stroke="#7079F1" stroke-miterlimit="10"/>
<path d="M504.472 400.439L499.613 342.026" stroke="#7079F1" stroke-miterlimit="10"/>
<path d="M525.4 302.307C525.4 302.307 529.781 307.815 534.852 320.587C542.043 338.698 550.618 371.417 550.056 423.751H514.723L525.4 302.307Z" fill="#C3C8FF"/>
<path d="M550.059 427.759C550.059 427.759 532.405 387.405 488 398.953C439.515 411.563 421.511 409.206 421.511 409.206L417.836 427.759H550.059Z" fill="#E9A394"/>
<path d="M503.841 390.472L488.086 393.993L523.873 427.758H557.606C557.606 427.758 543.068 392.525 503.841 390.472Z" fill="#7079F1"/>
<path d="M504.816 400.945L512.321 398.653" stroke="#C3C8FF" stroke-miterlimit="10"/>
<path d="M421.509 409.205L398.471 404.445L381.957 427.758H417.834L421.509 409.205Z" fill="#E9A394"/>
<path d="M460.555 363.363L503.365 320.574L495.412 316.82L525.396 302.307L511.627 293.55H479.582L460.555 317.321L465.812 318.64L460.555 322.326V363.363Z" fill="#7079F1"/>
<path d="M490.489 308.095L504.474 298.436L489.377 264.696L465.977 279.386L472.569 307.373L460.559 363.362L490.489 308.095Z" fill="#E9A394"/>
<path d="M467.859 287.38L484.282 278.82L469.62 294.852L467.859 287.38Z" fill="#E37A82"/>
<path d="M437.862 238.534L430.691 278.254H441.448L453.525 294.852L484.284 278.82L462.771 230.913L437.862 238.534Z" fill="#E9A394"/>
<path d="M436.122 248.165L435.402 252.529L463.77 248.66L463.335 243.227L436.122 248.165Z" fill="#E37A82"/>
<path d="M516.269 235.516C509.168 216.277 500.485 208.859 500.485 208.859C483.084 191.576 453.338 210.754 453.338 210.754C415.219 201.532 430.693 248.833 430.693 248.833L461.736 245.027C466.077 271.055 481.6 257.876 481.6 257.876L488.839 270.927C488.839 270.927 481.535 277.379 489.151 288.441C495.421 297.549 480.407 300.653 484.286 310.348L544.29 297.918C544.29 258.457 529.102 270.288 516.269 235.516Z" fill="#16005C"/>
<path d="M428.257 249.139C428.257 249.139 422.768 222.132 432.852 213.345C438.11 208.762 454.67 210.754 454.67 210.754" stroke="#7079F1" stroke-width="2" stroke-miterlimit="10"/>
<path d="M548.216 296.78C548.216 296.78 553.008 278.82 526.898 258.456" stroke="#16005C" stroke-width="2" stroke-miterlimit="10"/>
<path d="M482.492 272.596C489.631 272.596 495.418 266.812 495.418 259.677C495.418 252.542 489.631 246.758 482.492 246.758C475.353 246.758 469.566 252.542 469.566 259.677C469.566 266.812 475.353 272.596 482.492 272.596Z" fill="#E9A394"/>
<path d="M449.473 276.793L457.486 274.826C457.486 274.826 460.298 297.669 449.473 276.793Z" fill="white"/>
<path d="M442.797 263.295C442.797 263.295 445.347 247.758 450.928 263.295" stroke="#1C145E" stroke-width="0.5" stroke-miterlimit="10"/>
<path d="M444.766 251.476C444.766 251.476 447.872 246.217 451.553 251.476H444.766Z" fill="#16005C"/>
<path d="M324.191 111.507C319.542 98.5835 304.925 92.1126 292.113 97.6341C281.087 102.386 275.242 114.889 278.662 126.394C280.574 132.826 284.892 137.802 290.298 140.705C295.29 143.383 299.573 147.206 302.712 151.919L303.618 153.278L321.57 146.827L321.403 145.21C320.811 139.484 321.813 133.756 323.931 128.402C325.996 123.177 326.242 117.208 324.191 111.507Z" fill="#C3C8FF"/>
<path d="M324.191 111.507C319.542 98.5835 304.925 92.1126 292.113 97.6341C281.087 102.386 275.242 114.889 278.662 126.394C280.574 132.826 284.892 137.802 290.298 140.705C295.29 143.383 299.573 147.206 302.712 151.919L303.618 153.278L321.57 146.827L321.403 145.21C320.811 139.484 321.813 133.756 323.931 128.402C325.996 123.177 326.242 117.208 324.191 111.507Z" fill="#C3C8FF"/>
<path d="M307.728 147.986L293.418 127.815C293.418 127.815 293.678 123.73 298.17 124.378C302.662 125.025 305.343 132.11 302.138 130.967C298.933 129.824 297.799 121.496 303.864 120.226C309.928 118.956 311.955 132.727 308.604 130.074C305.254 127.421 305.96 118.653 312.455 118.581L316.265 147.673" stroke="white" stroke-miterlimit="10"/>
<path d="M321.152 160.614L312.722 163.644C309.517 164.797 305.983 163.133 304.831 159.929L303.049 154.975C301.896 151.772 303.561 148.24 306.766 147.089L315.196 144.059C318.401 142.907 321.934 144.571 323.087 147.774L324.869 152.728C326.02 155.932 324.357 159.462 321.152 160.614Z" fill="#16005C"/>
<path d="M323.137 139.573L297.75 148.696L302.206 161.083L327.593 151.96L323.137 139.573Z" fill="#6876EB"/>
<path d="M301.033 89.5448L298.5 75.0312" stroke="#C3C8FF" stroke-miterlimit="10"/>
<path d="M282.738 98.1898L270.609 86.3496" stroke="#C3C8FF" stroke-miterlimit="10"/>
<path d="M270.096 119.699L256.258 120.688" stroke="#C3C8FF" stroke-miterlimit="10"/>
<path d="M320.977 97.4979L327.205 85.9541" stroke="#C3C8FF" stroke-miterlimit="10"/>
<path d="M515.821 204.12H601.629C604.613 204.12 607.47 201.703 608.011 198.72L616.878 149.825C617.42 146.843 615.438 144.425 612.455 144.425H526.646C523.663 144.425 520.805 146.842 520.264 149.825L511.397 198.72C510.858 201.702 512.837 204.12 515.821 204.12Z" fill="#1C145C"/>
<path d="M584.618 178.071C587.122 175.784 587.605 172.237 585.696 170.147C583.786 168.058 580.208 168.219 577.703 170.505C575.198 172.792 574.716 176.34 576.625 178.429C578.534 180.518 582.113 180.358 584.618 178.071Z" fill="white"/>
<path d="M567.571 178.071C570.075 175.784 570.558 172.237 568.649 170.147C566.74 168.058 563.161 168.219 560.656 170.505C558.152 172.792 557.669 176.34 559.578 178.429C561.488 180.518 565.066 180.358 567.571 178.071Z" fill="white"/>
<path d="M550.528 178.07C553.032 175.784 553.515 172.236 551.606 170.147C549.697 168.058 546.118 168.218 543.613 170.505C541.109 172.792 540.626 176.339 542.535 178.428C544.445 180.517 548.023 180.357 550.528 178.07Z" fill="white"/>
<path d="M562.003 200.905L532.188 218.615L537.531 199.508L562.003 200.905Z" fill="#1C145C"/>
<path d="M239.389 196.872H153.58C150.597 196.872 147.739 194.455 147.198 191.472L138.331 142.577C137.79 139.595 139.771 137.177 142.755 137.177H228.563C231.547 137.177 234.404 139.594 234.945 142.577L243.812 191.472C244.354 194.454 242.374 196.872 239.389 196.872Z" fill="#C3C8FF"/>
<path d="M178.551 171.159C180.461 169.07 179.978 165.522 177.473 163.235C174.968 160.948 171.39 160.788 169.481 162.877C167.571 164.967 168.054 168.514 170.559 170.801C173.064 173.088 176.642 173.248 178.551 171.159Z" fill="white"/>
<path d="M195.594 171.159C197.504 169.07 197.021 165.522 194.516 163.235C192.011 160.949 188.433 160.788 186.524 162.877C184.614 164.967 185.097 168.514 187.602 170.801C190.107 173.088 193.685 173.248 195.594 171.159Z" fill="white"/>
<path d="M212.641 171.16C214.55 169.071 214.068 165.523 211.563 163.236C209.058 160.949 205.48 160.789 203.57 162.878C201.661 164.968 202.144 168.515 204.649 170.802C207.153 173.089 210.732 173.249 212.641 171.16Z" fill="white"/>
<path d="M208.777 193.656L213.484 210.752L232.519 192.46L208.777 193.656Z" fill="#C3C8FF"/>
</svg>
